<?xml version="1.0" encoding="UTF-8"?>
<svg xmlns="http://www.w3.org/2000/svg" viewBox="0 0 1459.29 457.41">
  <defs>
    <style>
      .cls-1, .cls-2, .cls-3 {
        fill: #0a506a;
      }

      .cls-4, .cls-5, .cls-2, .cls-6, .cls-7, .cls-3, .cls-8, .cls-9, .cls-10, .cls-11, .cls-12 {
        font-family: Arial-BoldMT, Arial;
        font-weight: 700;
        letter-spacing: -.03em;
      }

      .cls-4, .cls-5, .cls-3 {
        font-size: 165px;
      }

      .cls-4, .cls-13, .cls-10 {
        fill: #31607a;
      }

      .cls-5, .cls-14, .cls-9 {
        fill: #0d77a1;
      }

      .cls-15, .cls-7 {
        fill: #654593;
      }

      .cls-2, .cls-9, .cls-10 {
        font-size: 140px;
      }

      .cls-6, .cls-7, .cls-8, .cls-11, .cls-12 {
        font-size: 130px;
      }

      .cls-6, .cls-16 {
        fill: #5c5684;
      }

      .cls-17 {
        fill: #93368d;
      }

      .cls-18 {
        fill: #fff;
      }

      .cls-8, .cls-19 {
        fill: #3f3a89;
      }

      .cls-20 {
        fill: #2d5e77;
      }

      .cls-21 {
        fill: #78256e;
      }

      .cls-11, .cls-22 {
        fill: #7b70b2;
      }

      .cls-23 {
        fill: #4fa6a2;
      }

      .cls-24 {
        fill: #6faf79;
      }

      .cls-25 {
        fill: #50164a;
      }

      .cls-12 {
        fill: #51a7a3;
      }
    </style>
  </defs>
  <g id="Layer_7" data-name="Layer 7">
    <rect class="cls-18" x="55.39" y="164.44" width="166.17" height="108.31"/>
    <rect class="cls-18" x="541.87" y="157.43" width="133.56" height="133.56"/>
    <circle class="cls-18" cx="376.73" cy="224.21" r="78.46"/>
  </g>
  <g id="ORIGINAL_PALETTE" data-name="ORIGINAL PALETTE">
    <text class="cls-4" transform="translate(746.22 162.3)"><tspan x="0" y="0">SOURCE</tspan></text>
    <text class="cls-10" transform="translate(734.92 412.68)"><tspan x="0" y="0">OUTCOME</tspan></text>
    <text class="cls-12" transform="translate(1044.01 279.73)"><tspan x="0" y="0">2</tspan></text>
    <path class="cls-20" d="M267,194.43c6.51,5.13,22.69,17.48,27.55,22.95,3.43,3.86,4.31,7.87,2.68,12.78-2.16,6.51-24.67,22.95-31.23,28.27-69.78,56.5-141.7,110.5-211.5,167-5.95,3.99-13.81,1.9-16.02-4.97l.3-383.75c1.78-5.37,8.8-7.94,13.8-5.34,64.23,49.08,128.67,97.9,192.53,147.47,7.03,5.46,14.99,10.16,21.9,15.6ZM184,202.43c-7.36-49.66-72.17-52.72-80.94-1.43-44.35,2.38-46.9,65.96-1.44,70.31,21.84,2.09,60.75,1.71,82.91.17,50.61-3.51,48.25-69.42-.54-69.04Z"/>
    <path class="cls-23" d="M497,195.43l1,2.45c6.93,6.06,20.84,12.98,26.54,19.5,12.81,14.66-17.91,28.56-26.53,36.61l-1.02,2.44c-3.3.5-5.9,3.09-8.46,5.04-69.82,53.24-137.71,109.19-207.28,162.71-8.38,1.95-13.4-3.22-14.26-11.25-.4-49.66.54-99.36.02-149.02-.02-1.69.64-4.45-1.02-5.49,6.56-5.31,29.07-21.75,31.23-28.27,1.63-4.91.75-8.93-2.68-12.78-4.86-5.47-21.04-17.82-27.55-22.95V42.93c5.62-22.4,21.21-6.88,31.9,1.11,62.42,46.61,123.11,95.73,185.21,142.79,4,3.03,8.22,6.75,12.9,8.6ZM445.5,213.43h-14.5l-5.02-16.47c.39-3.79,11.31-9.2,9.55-13.48-.94-2.29-12.93-15.37-15.28-15.87-4.64-.98-8.49,7.61-12.91,8.62-.85.08-14.79-6.05-15.64-6.74-4.14-3.36,1.17-15.21-4.41-16.85-1.95-.57-20.34-.48-21.36.24l-2.42,16.58c-.61,1.01-12.48,5.53-14.29,5.78-8.41,1.18-11.34-9.79-15.53-8.69-1.3.34-14.39,14.19-15.21,15.91-2.77,5.84,9.89,10.2,9.35,15.22-.19,1.73-4.23,13.72-5.3,14.8-3.33,3.36-11.54-.88-16.1,2.9-.6,7.92-2.97,15.98.49,23.63l15.41,1.35c1.56,3.73,6.8,13.54,5.17,17.06-1.19,2.57-8.19,7.18-10.07,10.06-.68,1-.14,1.77.28,2.67.95,2.05,14.28,15.28,16.24,15.91,5.2,1.65,9.45-9.96,14.26-9.45,1.41.15,14.25,5.47,14.86,6.25,2.45,3.16-.93,12.85,2.89,15.11,1.35.8,20.26.89,22.31.29,5.91-1.73-.64-12.32,5.35-16.65,1.74-1.26,11.97-5.36,13.82-5.17,4.41,1.13,7.99,10.22,12.81,8.87,1.5-.42,14.38-13.99,15.23-15.9,2.2-4.96-10.16-8.9-9.52-15.36.14-1.42,4.82-14.11,5.69-14.68,3.63-1.74,13.33,2.32,15.82-1.91,1.31-2.22,1.45-23.04-2.01-24.01Z"/>
    <path class="cls-24" d="M753.48,217.45c-78.45-57.35-153.1-120.18-231.59-177.41-9.38-6.84-18.94-15.71-24.92.87l.02,154.52,1,2.45c6.93,6.06,20.84,12.98,26.54,19.5,12.81,14.66-17.91,28.56-26.53,36.61l-1.02,2.44-.02,159.52c-.02,3.65,4.36,8.5,7.74,9.27,6.17,1.41,8.35-1.68,12.75-4.83,79.68-57.25,154.42-126.07,234.01-183.99,7.24-5.48,8.85-12.21,2.01-18.96ZM675.43,245.93h-45.22v45.07h-43.43v-45.07h-44.92v-43.43h44.92v-45.07h43.43v45.07h45.22v43.43Z"/>
    <rect class="cls-13" x="1143" y="224.42" width="265.05" height="9"/>
    <rect class="cls-13" x="771.95" y="224.37" width="244.1" height="9.05"/>
    <circle class="cls-23" cx="376.95" cy="225.85" r="32.11"/>
  </g>
  <g id="ORIGINAL_PALETTE_copy" data-name="ORIGINAL PALETTE copy">
    <text class="cls-3" transform="translate(746.22 162.3)"><tspan x="0" y="0">SOURCE</tspan></text>
    <text class="cls-2" transform="translate(734.92 412.68)"><tspan x="0" y="0">OUTCOME</tspan></text>
    <text class="cls-8" transform="translate(1044.01 279.73)"><tspan x="0" y="0">2</tspan></text>
    <path class="cls-1" d="M267,194.43c6.51,5.13,22.69,17.48,27.55,22.95,3.43,3.86,4.31,7.87,2.68,12.78-2.16,6.51-24.67,22.95-31.23,28.27-69.78,56.5-141.7,110.5-211.5,167-5.95,3.99-13.81,1.9-16.02-4.97l.3-383.75c1.78-5.37,8.8-7.94,13.8-5.34,64.23,49.08,128.67,97.9,192.53,147.47,7.03,5.46,14.99,10.16,21.9,15.6ZM184,202.43c-7.36-49.66-72.17-52.72-80.94-1.43-44.35,2.38-46.9,65.96-1.44,70.31,21.84,2.09,60.75,1.71,82.91.17,50.61-3.51,48.25-69.42-.54-69.04Z"/>
    <path class="cls-19" d="M497,195.43l1,2.45c6.93,6.06,20.84,12.98,26.54,19.5,12.81,14.66-17.91,28.56-26.53,36.61l-1.02,2.44c-3.3.5-5.9,3.09-8.46,5.04-69.82,53.24-137.71,109.19-207.28,162.71-8.38,1.95-13.4-3.22-14.26-11.25-.4-49.66.54-99.36.02-149.02-.02-1.69.64-4.45-1.02-5.49,6.56-5.31,29.07-21.75,31.23-28.27,1.63-4.91.75-8.93-2.68-12.78-4.86-5.47-21.04-17.82-27.55-22.95V42.93c5.62-22.4,21.21-6.88,31.9,1.11,62.42,46.61,123.11,95.73,185.21,142.79,4,3.03,8.22,6.75,12.9,8.6ZM445.5,213.43h-14.5l-5.02-16.47c.39-3.79,11.31-9.2,9.55-13.48-.94-2.29-12.93-15.37-15.28-15.87-4.64-.98-8.49,7.61-12.91,8.62-.85.08-14.79-6.05-15.64-6.74-4.14-3.36,1.17-15.21-4.41-16.85-1.95-.57-20.34-.48-21.36.24l-2.42,16.58c-.61,1.01-12.48,5.53-14.29,5.78-8.41,1.18-11.34-9.79-15.53-8.69-1.3.34-14.39,14.19-15.21,15.91-2.77,5.84,9.89,10.2,9.35,15.22-.19,1.73-4.23,13.72-5.3,14.8-3.33,3.36-11.54-.88-16.1,2.9-.6,7.92-2.97,15.98.49,23.63l15.41,1.35c1.56,3.73,6.8,13.54,5.17,17.06-1.19,2.57-8.19,7.18-10.07,10.06-.68,1-.14,1.77.28,2.67.95,2.05,14.28,15.28,16.24,15.91,5.2,1.65,9.45-9.96,14.26-9.45,1.41.15,14.25,5.47,14.86,6.25,2.45,3.16-.93,12.85,2.89,15.11,1.35.8,20.26.89,22.31.29,5.91-1.73-.64-12.32,5.35-16.65,1.74-1.26,11.97-5.36,13.82-5.17,4.41,1.13,7.99,10.22,12.81,8.87,1.5-.42,14.38-13.99,15.23-15.9,2.2-4.96-10.16-8.9-9.52-15.36.14-1.42,4.82-14.11,5.69-14.68,3.63-1.74,13.33,2.32,15.82-1.91,1.31-2.22,1.45-23.04-2.01-24.01Z"/>
    <path class="cls-25" d="M753.48,217.45c-78.45-57.35-153.1-120.18-231.59-177.41-9.38-6.84-18.94-15.71-24.92.87l.02,154.52,1,2.45c6.93,6.06,20.84,12.98,26.54,19.5,12.81,14.66-17.91,28.56-26.53,36.61l-1.02,2.44-.02,159.52c-.02,3.65,4.36,8.5,7.74,9.27,6.17,1.41,8.35-1.68,12.75-4.83,79.68-57.25,154.42-126.07,234.01-183.99,7.24-5.48,8.85-12.21,2.01-18.96ZM675.43,245.93h-45.22v45.07h-43.43v-45.07h-44.92v-43.43h44.92v-45.07h43.43v45.07h45.22v43.43Z"/>
    <rect class="cls-1" x="1143" y="224.42" width="265.05" height="9"/>
    <rect class="cls-1" x="771.95" y="224.37" width="244.1" height="9.05"/>
    <circle class="cls-19" cx="376.95" cy="225.85" r="32.11"/>
  </g>
  <g id="ORIGINAL_PALETTE_copy_2" data-name="ORIGINAL PALETTE copy 2">
    <text class="cls-5" transform="translate(746.22 162.3)"><tspan x="0" y="0">SOURCE</tspan></text>
    <text class="cls-9" transform="translate(734.92 412.68)"><tspan x="0" y="0">OUTCOME</tspan></text>
    <text class="cls-6" transform="translate(1044.01 279.73)"><tspan x="0" y="0">2</tspan></text>
    <path class="cls-14" d="M267,194.43c6.51,5.13,22.69,17.48,27.55,22.95,3.43,3.86,4.31,7.87,2.68,12.78-2.16,6.51-24.67,22.95-31.23,28.27-69.78,56.5-141.7,110.5-211.5,167-5.95,3.99-13.81,1.9-16.02-4.97l.3-383.75c1.78-5.37,8.8-7.94,13.8-5.34,64.23,49.08,128.67,97.9,192.53,147.47,7.03,5.46,14.99,10.16,21.9,15.6ZM184,202.43c-7.36-49.66-72.17-52.72-80.94-1.43-44.35,2.38-46.9,65.96-1.44,70.31,21.84,2.09,60.75,1.71,82.91.17,50.61-3.51,48.25-69.42-.54-69.04Z"/>
    <path class="cls-16" d="M497,195.43l1,2.45c6.93,6.06,20.84,12.98,26.54,19.5,12.81,14.66-17.91,28.56-26.53,36.61l-1.02,2.44c-3.3.5-5.9,3.09-8.46,5.04-69.82,53.24-137.71,109.19-207.28,162.71-8.38,1.95-13.4-3.22-14.26-11.25-.4-49.66.54-99.36.02-149.02-.02-1.69.64-4.45-1.02-5.49,6.56-5.31,29.07-21.75,31.23-28.27,1.63-4.91.75-8.93-2.68-12.78-4.86-5.47-21.04-17.82-27.55-22.95V42.93c5.62-22.4,21.21-6.88,31.9,1.11,62.42,46.61,123.11,95.73,185.21,142.79,4,3.03,8.22,6.75,12.9,8.6ZM445.5,213.43h-14.5l-5.02-16.47c.39-3.79,11.31-9.2,9.55-13.48-.94-2.29-12.93-15.37-15.28-15.87-4.64-.98-8.49,7.61-12.91,8.62-.85.08-14.79-6.05-15.64-6.74-4.14-3.36,1.17-15.21-4.41-16.85-1.95-.57-20.34-.48-21.36.24l-2.42,16.58c-.61,1.01-12.48,5.53-14.29,5.78-8.41,1.18-11.34-9.79-15.53-8.69-1.3.34-14.39,14.19-15.21,15.91-2.77,5.84,9.89,10.2,9.35,15.22-.19,1.73-4.23,13.72-5.3,14.8-3.33,3.36-11.54-.88-16.1,2.9-.6,7.92-2.97,15.98.49,23.63l15.41,1.35c1.56,3.73,6.8,13.54,5.17,17.06-1.19,2.57-8.19,7.18-10.07,10.06-.68,1-.14,1.77.28,2.67.95,2.05,14.28,15.28,16.24,15.91,5.2,1.65,9.45-9.96,14.26-9.45,1.41.15,14.25,5.47,14.86,6.25,2.45,3.16-.93,12.85,2.89,15.11,1.35.8,20.26.89,22.31.29,5.91-1.73-.64-12.32,5.35-16.65,1.74-1.26,11.97-5.36,13.82-5.17,4.41,1.13,7.99,10.22,12.81,8.87,1.5-.42,14.38-13.99,15.23-15.9,2.2-4.96-10.16-8.9-9.52-15.36.14-1.42,4.82-14.11,5.69-14.68,3.63-1.74,13.33,2.32,15.82-1.91,1.31-2.22,1.45-23.04-2.01-24.01Z"/>
    <path class="cls-21" d="M753.48,217.45c-78.45-57.35-153.1-120.18-231.59-177.41-9.38-6.84-18.94-15.71-24.92.87l.02,154.52,1,2.45c6.93,6.06,20.84,12.98,26.54,19.5,12.81,14.66-17.91,28.56-26.53,36.61l-1.02,2.44-.02,159.52c-.02,3.65,4.36,8.5,7.74,9.27,6.17,1.41,8.35-1.68,12.75-4.83,79.68-57.25,154.42-126.07,234.01-183.99,7.24-5.48,8.85-12.21,2.01-18.96ZM675.43,245.93h-45.22v45.07h-43.43v-45.07h-44.92v-43.43h44.92v-45.07h43.43v45.07h45.22v43.43Z"/>
    <rect class="cls-14" x="1143" y="224.42" width="265.05" height="9"/>
    <rect class="cls-14" x="771.95" y="224.37" width="244.1" height="9.05"/>
    <circle class="cls-16" cx="376.95" cy="225.85" r="32.11"/>
  </g>
  <g id="ORIGINAL_PALETTE_copy_3" data-name="ORIGINAL PALETTE copy 3">
    <text class="cls-3" transform="translate(746.22 162.3)"><tspan x="0" y="0">SOURCE</tspan></text>
    <text class="cls-2" transform="translate(734.92 412.68)"><tspan x="0" y="0">OUTCOME</tspan></text>
    <text class="cls-11" transform="translate(1044.01 279.73)"><tspan x="0" y="0">2</tspan></text>
    <path class="cls-1" d="M267,194.43c6.51,5.13,22.69,17.48,27.55,22.95,3.43,3.86,4.31,7.87,2.68,12.78-2.16,6.51-24.67,22.95-31.23,28.27-69.78,56.5-141.7,110.5-211.5,167-5.95,3.99-13.81,1.9-16.02-4.97l.3-383.75c1.78-5.37,8.8-7.94,13.8-5.34,64.23,49.08,128.67,97.9,192.53,147.47,7.03,5.46,14.99,10.16,21.9,15.6ZM184,202.43c-7.36-49.66-72.17-52.72-80.94-1.43-44.35,2.38-46.9,65.96-1.44,70.31,21.84,2.09,60.75,1.71,82.91.17,50.61-3.51,48.25-69.42-.54-69.04Z"/>
    <path class="cls-22" d="M497,195.43l1,2.45c6.93,6.06,20.84,12.98,26.54,19.5,12.81,14.66-17.91,28.56-26.53,36.61l-1.02,2.44c-3.3.5-5.9,3.09-8.46,5.04-69.82,53.24-137.71,109.19-207.28,162.71-8.38,1.95-13.4-3.22-14.26-11.25-.4-49.66.54-99.36.02-149.02-.02-1.69.64-4.45-1.02-5.49,6.56-5.31,29.07-21.75,31.23-28.27,1.63-4.91.75-8.93-2.68-12.78-4.86-5.47-21.04-17.82-27.55-22.95V42.93c5.62-22.4,21.21-6.88,31.9,1.11,62.42,46.61,123.11,95.73,185.21,142.79,4,3.03,8.22,6.75,12.9,8.6ZM445.5,213.43h-14.5l-5.02-16.47c.39-3.79,11.31-9.2,9.55-13.48-.94-2.29-12.93-15.37-15.28-15.87-4.64-.98-8.49,7.61-12.91,8.62-.85.08-14.79-6.05-15.64-6.74-4.14-3.36,1.17-15.21-4.41-16.85-1.95-.57-20.34-.48-21.36.24l-2.42,16.58c-.61,1.01-12.48,5.53-14.29,5.78-8.41,1.18-11.34-9.79-15.53-8.69-1.3.34-14.39,14.19-15.21,15.91-2.77,5.84,9.89,10.2,9.35,15.22-.19,1.73-4.23,13.72-5.3,14.8-3.33,3.36-11.54-.88-16.1,2.9-.6,7.92-2.97,15.98.49,23.63l15.41,1.35c1.56,3.73,6.8,13.54,5.17,17.06-1.19,2.57-8.19,7.18-10.07,10.06-.68,1-.14,1.77.28,2.67.95,2.05,14.28,15.28,16.24,15.91,5.2,1.65,9.45-9.96,14.26-9.45,1.41.15,14.25,5.47,14.86,6.25,2.45,3.16-.93,12.85,2.89,15.11,1.35.8,20.26.89,22.31.29,5.91-1.73-.64-12.32,5.35-16.65,1.74-1.26,11.97-5.36,13.82-5.17,4.41,1.13,7.99,10.22,12.81,8.87,1.5-.42,14.38-13.99,15.23-15.9,2.2-4.96-10.16-8.9-9.52-15.36.14-1.42,4.82-14.11,5.69-14.68,3.63-1.74,13.33,2.32,15.82-1.91,1.31-2.22,1.45-23.04-2.01-24.01Z"/>
    <path class="cls-17" d="M753.48,217.45c-78.45-57.35-153.1-120.18-231.59-177.41-9.38-6.84-18.94-15.71-24.92.87l.02,154.52,1,2.45c6.93,6.06,20.84,12.98,26.54,19.5,12.81,14.66-17.91,28.56-26.53,36.61l-1.02,2.44-.02,159.52c-.02,3.65,4.36,8.5,7.74,9.27,6.17,1.41,8.35-1.68,12.75-4.83,79.68-57.25,154.42-126.07,234.01-183.99,7.24-5.48,8.85-12.21,2.01-18.96ZM675.43,245.93h-45.22v45.07h-43.43v-45.07h-44.92v-43.43h44.92v-45.07h43.43v45.07h45.22v43.43Z"/>
    <rect class="cls-1" x="1143" y="224.42" width="265.05" height="9"/>
    <rect class="cls-1" x="771.95" y="224.37" width="244.1" height="9.05"/>
    <circle class="cls-22" cx="376.95" cy="225.85" r="32.11"/>
  </g>
  <g id="ORIGINAL_PALETTE_copy_4" data-name="ORIGINAL PALETTE copy 4">
    <text class="cls-3" transform="translate(746.22 162.3)"><tspan x="0" y="0">SOURCE</tspan></text>
    <text class="cls-2" transform="translate(734.92 412.68)"><tspan x="0" y="0">OUTCOME</tspan></text>
    <text class="cls-7" transform="translate(1044.01 279.73)"><tspan x="0" y="0">2</tspan></text>
    <path class="cls-1" d="M267,194.43c6.51,5.13,22.69,17.48,27.55,22.95,3.43,3.86,4.31,7.87,2.68,12.78-2.16,6.51-24.67,22.95-31.23,28.27-69.78,56.5-141.7,110.5-211.5,167-5.95,3.99-13.81,1.9-16.02-4.97l.3-383.75c1.78-5.37,8.8-7.94,13.8-5.34,64.23,49.08,128.67,97.9,192.53,147.47,7.03,5.46,14.99,10.16,21.9,15.6ZM184,202.43c-7.36-49.66-72.17-52.72-80.94-1.43-44.35,2.38-46.9,65.96-1.44,70.31,21.84,2.09,60.75,1.71,82.91.17,50.61-3.51,48.25-69.42-.54-69.04Z"/>
    <path class="cls-15" d="M497,195.43l1,2.45c6.93,6.06,20.84,12.98,26.54,19.5,12.81,14.66-17.91,28.56-26.53,36.61l-1.02,2.44c-3.3.5-5.9,3.09-8.46,5.04-69.82,53.24-137.71,109.19-207.28,162.71-8.38,1.95-13.4-3.22-14.26-11.25-.4-49.66.54-99.36.02-149.02-.02-1.69.64-4.45-1.02-5.49,6.56-5.31,29.07-21.75,31.23-28.27,1.63-4.91.75-8.93-2.68-12.78-4.86-5.47-21.04-17.82-27.55-22.95V42.93c5.62-22.4,21.21-6.88,31.9,1.11,62.42,46.61,123.11,95.73,185.21,142.79,4,3.03,8.22,6.75,12.9,8.6ZM445.5,213.43h-14.5l-5.02-16.47c.39-3.79,11.31-9.2,9.55-13.48-.94-2.29-12.93-15.37-15.28-15.87-4.64-.98-8.49,7.61-12.91,8.62-.85.08-14.79-6.05-15.64-6.74-4.14-3.36,1.17-15.21-4.41-16.85-1.95-.57-20.34-.48-21.36.24l-2.42,16.58c-.61,1.01-12.48,5.53-14.29,5.78-8.41,1.18-11.34-9.79-15.53-8.69-1.3.34-14.39,14.19-15.21,15.91-2.77,5.84,9.89,10.2,9.35,15.22-.19,1.73-4.23,13.72-5.3,14.8-3.33,3.36-11.54-.88-16.1,2.9-.6,7.92-2.97,15.98.49,23.63l15.41,1.35c1.56,3.73,6.8,13.54,5.17,17.06-1.19,2.57-8.19,7.18-10.07,10.06-.68,1-.14,1.77.28,2.67.95,2.05,14.28,15.28,16.24,15.91,5.2,1.65,9.45-9.96,14.26-9.45,1.41.15,14.25,5.47,14.86,6.25,2.45,3.16-.93,12.85,2.89,15.11,1.35.8,20.26.89,22.31.29,5.91-1.73-.64-12.32,5.35-16.65,1.74-1.26,11.97-5.36,13.82-5.17,4.41,1.13,7.99,10.22,12.81,8.87,1.5-.42,14.38-13.99,15.23-15.9,2.2-4.96-10.16-8.9-9.52-15.36.14-1.42,4.82-14.11,5.69-14.68,3.63-1.74,13.33,2.32,15.82-1.91,1.31-2.22,1.45-23.04-2.01-24.01Z"/>
    <path class="cls-17" d="M753.48,217.45c-78.45-57.35-153.1-120.18-231.59-177.41-9.38-6.84-18.94-15.71-24.92.87l.02,154.52,1,2.45c6.93,6.06,20.84,12.98,26.54,19.5,12.81,14.66-17.91,28.56-26.53,36.61l-1.02,2.44-.02,159.52c-.02,3.65,4.36,8.5,7.74,9.27,6.17,1.41,8.35-1.68,12.75-4.83,79.68-57.25,154.42-126.07,234.01-183.99,7.24-5.48,8.85-12.21,2.01-18.96ZM675.43,245.93h-45.22v45.07h-43.43v-45.07h-44.92v-43.43h44.92v-45.07h43.43v45.07h45.22v43.43Z"/>
    <rect class="cls-1" x="1143" y="224.42" width="265.05" height="9"/>
    <rect class="cls-1" x="771.95" y="224.37" width="244.1" height="9.05"/>
    <circle class="cls-15" cx="376.95" cy="225.85" r="32.11"/>
  </g>
</svg>
